<svg id="visual" viewBox="0 0 1920 1080" width="1920" height="1080" xmlns="http://www.w3.org/2000/svg" xmlns:xlink="http://www.w3.org/1999/xlink" version="1.1"><path d="M0 689L80 686.5C160 684 320 679 480 708.8C640 738.7 800 803.3 960 837.3C1120 871.3 1280 874.7 1440 851.8C1600 829 1760 780 1840 755.5L1920 731L1920 1081L1840 1081C1760 1081 1600 1081 1440 1081C1280 1081 1120 1081 960 1081C800 1081 640 1081 480 1081C320 1081 160 1081 80 1081L0 1081Z" fill="#076f36"></path><path d="M0 944L80 919C160 894 320 844 480 820.5C640 797 800 800 960 819C1120 838 1280 873 1440 870.8C1600 868.7 1760 829.3 1840 809.7L1920 790L1920 1081L1840 1081C1760 1081 1600 1081 1440 1081C1280 1081 1120 1081 960 1081C800 1081 640 1081 480 1081C320 1081 160 1081 80 1081L0 1081Z" fill="#118a3f"></path><path d="M0 987L80 989.7C160 992.3 320 997.7 480 990C640 982.3 800 961.7 960 944.2C1120 926.7 1280 912.3 1440 914.5C1600 916.7 1760 935.3 1840 944.7L1920 954L1920 1081L1840 1081C1760 1081 1600 1081 1440 1081C1280 1081 1120 1081 960 1081C800 1081 640 1081 480 1081C320 1081 160 1081 80 1081L0 1081Z" fill="#1fa547"></path></svg>